<?xml version="1.0" standalone="no"?><svg xmlns="http://www.w3.org/2000/svg" viewBox="0 0 1440 320"><path fill="#000000" fill-opacity="1" d="M0,32L26.7,42.7C53.3,53,107,75,160,90.7C213.3,107,267,117,320,112C373.3,107,427,85,480,117.3C533.3,149,587,235,640,245.3C693.3,256,747,192,800,176C853.3,160,907,192,960,197.3C1013.3,203,1067,181,1120,186.7C1173.3,192,1227,224,1280,197.3C1333.3,171,1387,85,1413,42.7L1440,0L1440,320L1413.3,320C1386.7,320,1333,320,1280,320C1226.7,320,1173,320,1120,320C1066.7,320,1013,320,960,320C906.7,320,853,320,800,320C746.7,320,693,320,640,320C586.7,320,533,320,480,320C426.7,320,373,320,320,320C266.7,320,213,320,160,320C106.7,320,53,320,27,320L0,320Z"></path></svg>